# xmcd
#
# Track frame offsets:
#	150
#	10697
#	21512
#	32982
#	45337
#	58783
#	71444
#	83439
#	95516
#	107372
#	118501
#	131387
#	144416
#	154908
#	167265
#	179042
#	190712
#	204791
#	215996
#	226690
#	235818
#	249582
#	262850
#	277280
#
# Disc length: 3866 seconds
#
# Revision: 1
# Processed by: cddbd v1.5.2PL0 Copyright (c) Steve Scherf et al.
# Submitted via: EasyCDDAExtractor 16.0.9.1
#
DISCID=400f1818
DTITLE=Ray Charles - N-099 Ray Charles  The Essential Collection
DYEAR=1900
DGENRE=R&B
TTITLE0=Ain't That Fine
TTITLE1=Th'Ego Song 
TTITLE2=She's On The Ball
TTITLE3=Honey, Honey
TTITLE4=Alone In The City
TTITLE5=Rockin' Chair Blues
TTITLE6=If I Give You My Love
TTITLE7=Can't You See, Darling
TTITLE8=How Long Blues
TTITLE9=A Sentimental Blues
TTITLE10=You Always Miss The Water
TTITLE11=Don't Put All Your Dreams In One Basket
TTITLE12=Sitting On Top Of The World
TTITLE13=I've Had My Fun
TTITLE14=C.C. Rider
TTITLE15=What Have I Done
TTITLE16=Late In The Evening Blues
TTITLE17=I'll Do Anything But Work
TTITLE18=I Wonder Who's Kissing Her Now
TTITLE19=All To Myself Alone
TTITLE20=Baby, Let Me Hold Your Hand
TTITLE21=Baby, Won't You Please Come Ho
TTITLE22=Kissa Me Baby
TTITLE23=The Snow Is Falling
EXTD=
EXTT0=
EXTT1=
EXTT2=
EXTT3=
EXTT4=
EXTT5=
EXTT6=
EXTT7=
EXTT8=
EXTT9=
EXTT10=
EXTT11=
EXTT12=
EXTT13=
EXTT14=
EXTT15=
EXTT16=
EXTT17=
EXTT18=
EXTT19=
EXTT20=
EXTT21=
EXTT22=
EXTT23=
PLAYORDER=
